# xmcd
#
# Track frame offsets:
#	150
#	11049
#	23044
#	31312
#	41761
#	53019
#	64182
#	74924
#	83456
#	96795
#	104559
#	114153
#
# Disc length: 1640 seconds
#
# Revision: 0
# Processed by: cddbd v1.5.2PL0 Copyright (c) Steve Scherf et al.
# Submitted via: EasyCDDAExtractor 12.0.0.1
#
DISCID=9906660c
DTITLE=Cumpani - Cumpani 1. a šlus
DYEAR=2007
DGENRE=Folk - Country
TTITLE0=Štěstí
TTITLE1=Naber vodu
TTITLE2=Kolotoč
TTITLE3=Amulet
TTITLE4=Rozhodutí
TTITLE5=Galileo Galilei
TTITLE6=Odjíždím v dál
TTITLE7=Folsom blues
TTITLE8=Chvíle
TTITLE9=Drnová chajda
TTITLE10=Bitva o New Orleans
TTITLE11=Foggy Mountain Breakdown
EXTD=
EXTT0=
EXTT1=
EXTT2=
EXTT3=
EXTT4=
EXTT5=
EXTT6=
EXTT7=
EXTT8=
EXTT9=
EXTT10=
EXTT11=
PLAYORDER=
